<svg width="1599" height="1599" viewBox="0 0 1599 1599" fill="none" xmlns="http://www.w3.org/2000/svg">
<rect width="1599" height="1599" fill="#593137"/>
<rect x="251.629" y="532.621" width="62.0955" height="388.097" fill="#F3EDDA"/>
<rect x="251.629" y="532.621" width="62.0955" height="388.097" fill="#F3EDDA"/>
<rect x="574.526" y="1241.45" width="62.0955" height="280.999" transform="rotate(-59.899 574.526 1241.45)" fill="#F3EDDA"/>
<rect x="574.526" y="1241.45" width="62.0955" height="280.999" transform="rotate(-59.899 574.526 1241.45)" fill="#F3EDDA"/>
<rect x="257.838" y="1070.69" width="62.0955" height="280.999" transform="rotate(-59.899 257.838 1070.69)" fill="#F3EDDA"/>
<rect x="257.838" y="1070.69" width="62.0955" height="280.999" transform="rotate(-59.899 257.838 1070.69)" fill="#F3EDDA"/>
<rect x="251.629" y="921.657" width="62.0955" height="288.476" transform="rotate(-59.899 251.629 921.657)" fill="#F3EDDA"/>
<rect x="251.629" y="921.657" width="62.0955" height="288.476" transform="rotate(-59.899 251.629 921.657)" fill="#F3EDDA"/>
<rect x="478.37" y="892.774" width="62.0955" height="194.863" transform="rotate(0.0303587 478.37 892.774)" fill="#F3EDDA"/>
<rect x="478.37" y="892.774" width="62.0955" height="194.863" transform="rotate(0.0303587 478.37 892.774)" fill="#F3EDDA"/>
<rect x="630.196" y="693.929" width="62.0955" height="252.158" transform="rotate(37.0472 630.196 693.929)" fill="#F3EDDA"/>
<rect x="630.196" y="693.929" width="62.0955" height="252.158" transform="rotate(37.0472 630.196 693.929)" fill="#F3EDDA"/>
<rect x="629.082" y="693.087" width="63.4927" height="250.314" transform="rotate(37.0472 629.082 693.087)" fill="#F3EDDA"/>
<rect x="629.082" y="693.087" width="63.4927" height="250.314" transform="rotate(37.0472 629.082 693.087)" fill="#F3EDDA"/>
<rect x="636.622" y="762.374" width="65.2003" height="254.591" transform="rotate(-90 636.622 762.374)" fill="#F3EDDA"/>
<rect x="636.622" y="762.374" width="65.2003" height="254.591" transform="rotate(-90 636.622 762.374)" fill="#F3EDDA"/>
<rect x="617.993" y="898.984" width="62.0955" height="332.211" transform="rotate(-90 617.993 898.984)" fill="#F3EDDA"/>
<rect x="617.993" y="898.984" width="62.0955" height="332.211" transform="rotate(-90 617.993 898.984)" fill="#F3EDDA"/>
<rect x="891.299" y="763.057" width="62.0955" height="454.16" transform="rotate(-134.539 891.299 763.057)" fill="#F3EDDA"/>
<rect x="782.724" y="1242.11" width="62.0955" height="410.781" transform="rotate(-121.046 782.724 1242.11)" fill="#F3EDDA"/>
<rect x="782.724" y="1242.11" width="62.0955" height="410.781" transform="rotate(-121.046 782.724 1242.11)" fill="#F3EDDA"/>
<rect x="817.675" y="1382.85" width="62.0955" height="546.089" transform="rotate(-121.046 817.675 1382.85)" fill="#F3EDDA"/>
<rect x="817.675" y="1382.85" width="62.0955" height="546.089" transform="rotate(-121.046 817.675 1382.85)" fill="#F3EDDA"/>
<rect x="947.027" y="905.849" width="62.0955" height="491.154" transform="rotate(-134.539 947.027 905.849)" fill="#F3EDDA"/>
<rect x="947.027" y="905.849" width="62.0955" height="491.154" transform="rotate(-134.539 947.027 905.849)" fill="#F3EDDA"/>
<rect x="637.778" y="1090.15" width="60.6993" height="200.544" transform="rotate(57.4799 637.778 1090.15)" fill="#F3EDDA"/>
<rect x="637.778" y="1090.15" width="60.6993" height="200.544" transform="rotate(57.4799 637.778 1090.15)" fill="#F3EDDA"/>
<rect x="680.088" y="753.06" width="62.0955" height="276.325" transform="rotate(180 680.088 753.06)" fill="#F3EDDA"/>
<rect x="680.088" y="753.06" width="62.0955" height="276.325" transform="rotate(180 680.088 753.06)" fill="#F3EDDA"/>
<rect x="670.774" y="1141.16" width="52.7812" height="245.277" transform="rotate(180 670.774 1141.16)" fill="#F3EDDA"/>
<rect x="670.774" y="1141.16" width="52.7812" height="245.277" transform="rotate(180 670.774 1141.16)" fill="#F3EDDA"/>
<rect x="732.674" y="233.744" width="62.0955" height="566.226" transform="rotate(58.1641 732.674 233.744)" fill="#F3EDDA"/>
<rect x="732.674" y="233.744" width="62.0955" height="566.226" transform="rotate(58.1641 732.674 233.744)" fill="#F3EDDA"/>
<rect x="700.319" y="286.52" width="62.0955" height="386.887" transform="rotate(-58.3878 700.319 286.52)" fill="#F3EDDA"/>
<rect x="700.319" y="286.52" width="62.0955" height="386.887" transform="rotate(-58.3878 700.319 286.52)" fill="#F3EDDA"/>
<rect x="942.625" y="539.268" width="62.0955" height="138.963" transform="rotate(-132.683 942.625 539.268)" fill="#F3EDDA"/>
<rect x="907.183" y="571.955" width="62.0955" height="187.177" transform="rotate(-132.683 907.183 571.955)" fill="#F3EDDA"/>
<rect x="950.203" y="1134.95" width="62.0955" height="267.011" transform="rotate(180 950.203 1134.95)" fill="#F3EDDA"/>
<rect x="950.203" y="1134.95" width="62.0955" height="267.011" transform="rotate(180 950.203 1134.95)" fill="#F3EDDA"/>
<rect x="1133.39" y="1029.38" width="62.0955" height="220.439" transform="rotate(180 1133.39 1029.38)" fill="#F3EDDA"/>
<rect x="1133.39" y="1029.38" width="62.0955" height="220.439" transform="rotate(180 1133.39 1029.38)" fill="#F3EDDA"/>
<rect x="1285.52" y="1100.79" width="62.0955" height="428.459" transform="rotate(180 1285.52 1100.79)" fill="#F3EDDA"/>
<rect x="1285.52" y="1100.79" width="62.0955" height="428.459" transform="rotate(180 1285.52 1100.79)" fill="#F3EDDA"/>
<rect x="926.739" y="504.89" width="62.0955" height="218.851" transform="rotate(121.905 926.739 504.89)" fill="#F3EDDA"/>
<rect x="926.739" y="504.89" width="62.0955" height="218.851" transform="rotate(121.905 926.739 504.89)" fill="#F3EDDA"/>
<rect x="950.543" y="592.861" width="62.2071" height="214.223" transform="rotate(121.905 950.543 592.861)" fill="#593137"/>
<rect x="740.839" y="389.131" width="62.0955" height="410.191" transform="rotate(59.2718 740.839 389.131)" fill="#F3EDDA"/>
<rect x="740.839" y="389.131" width="62.0955" height="410.191" transform="rotate(59.2718 740.839 389.131)" fill="#F3EDDA"/>
<rect x="388.239" y="598.219" width="62.0955" height="241.863" transform="rotate(-0.367522 388.239 598.219)" fill="#F3EDDA"/>
<rect x="388.239" y="598.219" width="62.0955" height="241.863" transform="rotate(-0.367522 388.239 598.219)" fill="#F3EDDA"/>
<rect x="251.629" y="985.917" width="62.0955" height="97.214" fill="#F3EDDA"/>
<rect x="251.629" y="985.917" width="62.0955" height="97.214" fill="#F3EDDA"/>
<rect x="1030.94" y="533.422" width="55.7462" height="102.412" transform="rotate(-132.66 1030.94 533.422)" fill="#593137"/>
<rect x="1030.94" y="533.422" width="55.7462" height="102.412" transform="rotate(-132.66 1030.94 533.422)" fill="#593137"/>
<rect x="1223.94" y="729.948" width="55.7462" height="102.412" transform="rotate(-132.66 1223.94 729.948)" fill="#593137"/>
<rect x="1223.94" y="729.948" width="55.7462" height="102.412" transform="rotate(-132.66 1223.94 729.948)" fill="#593137"/>
<rect x="1071.81" y="866.558" width="55.7462" height="102.412" transform="rotate(-132.66 1071.81 866.558)" fill="#593137"/>
<rect x="1071.81" y="866.558" width="55.7462" height="102.412" transform="rotate(-132.66 1071.81 866.558)" fill="#593137"/>
<rect x="646.187" y="777.898" width="62.0955" height="175.631" transform="rotate(37.0472 646.187 777.898)" fill="#593137"/>
<rect x="646.187" y="777.898" width="62.0955" height="175.631" transform="rotate(37.0472 646.187 777.898)" fill="#593137"/>
<rect x="205" y="1111.83" width="62.0955" height="357.652" transform="rotate(-59.899 205 1111.83)" fill="#593137"/>
<rect x="205" y="1111.83" width="62.0955" height="357.652" transform="rotate(-59.899 205 1111.83)" fill="#593137"/>
<rect x="687.739" y="1125.63" width="60.6993" height="200.544" transform="rotate(57.4799 687.739 1125.63)" fill="#593137"/>
<rect x="687.739" y="1125.63" width="60.6993" height="200.544" transform="rotate(57.4799 687.739 1125.63)" fill="#593137"/>
<path d="M1380.52 638.736L1073.26 331.481L1381.9 330.099L1380.52 638.736Z" stroke="#F3EDDA" stroke-width="16"/>
<path d="M1373.59 621.911L1090.09 338.406L1374.87 337.132L1373.59 621.911Z" stroke="#F3EDDA" stroke-width="30"/>
<rect x="1057.21" y="710.215" width="78.6206" height="338.42" transform="rotate(-134.54 1057.21 710.215)" fill="#593137"/>
<rect x="1057.21" y="710.215" width="78.6206" height="338.42" transform="rotate(-134.54 1057.21 710.215)" fill="#593137"/>
<rect x="885.881" y="675.732" width="21.8392" height="175.705" transform="rotate(-134.539 885.881 675.732)" fill="#593137"/>
<rect x="885.881" y="675.732" width="21.8392" height="175.705" transform="rotate(-134.539 885.881 675.732)" fill="#593137"/>
<path d="M475.731 1055.6C475.902 1055.6 476.287 1055.72 476.62 1055.93C476.957 1056.13 477.211 1056.5 477.543 1056.78C477.945 1057.11 478.134 1057.44 478.359 1057.85C478.599 1058.28 479.289 1058.79 479.934 1059.35C481.486 1060.69 482.016 1061.5 482.49 1061.93C482.984 1062.38 483.562 1062.91 484.43 1063.51C484.716 1063.71 485.081 1063.96 486.616 1065.34C488.152 1066.71 490.85 1069.2 492.262 1070.53C493.673 1071.86 493.715 1071.97 493.759 1072.08" stroke="#593137" stroke-width="2" stroke-linecap="round"/>
<path d="M475.731 1055.6C475.902 1055.6 476.287 1055.72 476.62 1055.93C476.957 1056.13 477.211 1056.5 477.543 1056.78C477.945 1057.11 478.134 1057.44 478.359 1057.85C478.599 1058.28 479.289 1058.79 479.934 1059.35C481.486 1060.69 482.016 1061.5 482.49 1061.93C482.984 1062.38 483.562 1062.91 484.43 1063.51C484.716 1063.71 485.081 1063.96 486.616 1065.34C488.152 1066.71 490.85 1069.2 492.262 1070.53C493.673 1071.86 493.715 1071.97 493.759 1072.08" stroke="#593137" stroke-width="2" stroke-linecap="round"/>
<path d="M474.958 1060.62C475.213 1060.85 475.468 1061.09 477.087 1062.51C478.705 1063.94 481.68 1066.55 483.786 1068.28C485.892 1070.01 487.04 1070.78 487.673 1071.22C488.307 1071.67 488.392 1071.78 488.382 1071.75C488.373 1071.72 488.267 1071.55 486.746 1070.44C485.225 1069.33 482.293 1067.29 480.187 1065.67C478.082 1064.04 476.892 1062.9 475.666 1061.65" stroke="#593137" stroke-width="2" stroke-linecap="round"/>
<path d="M474.958 1060.62C475.213 1060.85 475.468 1061.09 477.087 1062.51C478.705 1063.94 481.68 1066.55 483.786 1068.28C485.892 1070.01 487.04 1070.78 487.673 1071.22C488.307 1071.67 488.392 1071.78 488.382 1071.75C488.373 1071.72 488.267 1071.55 486.746 1070.44C485.225 1069.33 482.293 1067.29 480.187 1065.67C478.082 1064.04 476.892 1062.9 475.666 1061.65" stroke="#593137" stroke-width="2" stroke-linecap="round"/>
<path d="M475.795 1055.47C476.009 1055.55 476.479 1055.77 476.856 1056.04C477.345 1056.38 478.089 1056.63 478.498 1056.77C478.859 1056.89 479.12 1057.18 479.411 1057.39C479.91 1057.74 480.836 1058.17 481.331 1058.42C481.74 1058.62 482.082 1058.84 482.415 1059.02C482.749 1059.2 483.048 1059.48 483.53 1059.78C484.755 1060.54 485.195 1060.62 485.581 1060.94C485.991 1061.28 486.374 1061.58 486.814 1061.87C487.526 1062.34 487.941 1062.59 488.595 1063.09C488.981 1063.38 489.358 1063.69 489.809 1064.02C490.202 1064.31 490.646 1064.59 491.16 1064.91C491.858 1065.35 492.191 1065.62 492.535 1065.84C492.893 1066.08 493.285 1066.28 493.672 1066.49C493.841 1066.58 493.973 1066.71 494.877 1067.28C495.701 1067.79 497.248 1068.8 498.302 1069.45C499.356 1070.1 499.866 1070.38 501.127 1070.97C502.388 1071.56 504.386 1072.45 505.701 1073.08C507.017 1073.71 507.591 1074.05 508.182 1074.4" stroke="#593137" stroke-width="2" stroke-linecap="round"/>
<path d="M475.795 1055.47C476.009 1055.55 476.479 1055.77 476.856 1056.04C477.345 1056.38 478.089 1056.63 478.498 1056.77C478.859 1056.89 479.12 1057.18 479.411 1057.39C479.91 1057.74 480.836 1058.17 481.331 1058.42C481.74 1058.62 482.082 1058.84 482.415 1059.02C482.749 1059.2 483.048 1059.48 483.53 1059.78C484.755 1060.54 485.195 1060.62 485.581 1060.94C485.991 1061.28 486.374 1061.58 486.814 1061.87C487.526 1062.34 487.941 1062.59 488.595 1063.09C488.981 1063.38 489.358 1063.69 489.809 1064.02C490.202 1064.31 490.646 1064.59 491.16 1064.91C491.858 1065.35 492.191 1065.62 492.535 1065.84C492.893 1066.08 493.285 1066.28 493.672 1066.49C493.841 1066.58 493.973 1066.71 494.877 1067.28C495.701 1067.79 497.248 1068.8 498.302 1069.45C499.356 1070.1 499.866 1070.38 501.127 1070.97C502.388 1071.56 504.386 1072.45 505.701 1073.08C507.017 1073.71 507.591 1074.05 508.182 1074.4" stroke="#593137" stroke-width="2" stroke-linecap="round"/>
<path d="M487.099 1073.35H487.171" stroke="#593137" stroke-linecap="round"/>
<path d="M487.099 1073.35H487.171" stroke="#593137" stroke-linecap="round"/>
<path d="M477.32 1054.82C477.404 1054.83 477.549 1054.87 477.645 1054.88C477.694 1054.88 477.742 1054.85 477.743 1054.82C477.744 1054.74 477.598 1054.7 477.52 1054.66C477.489 1054.63 477.477 1054.58 477.495 1054.56C477.513 1054.53 477.561 1054.53 477.682 1054.57" stroke="#593137" stroke-linecap="round"/>
<path d="M477.32 1054.82C477.404 1054.83 477.549 1054.87 477.645 1054.88C477.694 1054.88 477.742 1054.85 477.743 1054.82C477.744 1054.74 477.598 1054.7 477.52 1054.66C477.489 1054.63 477.477 1054.58 477.495 1054.56C477.513 1054.53 477.561 1054.53 477.682 1054.57" stroke="#593137" stroke-linecap="round"/>
<path d="M477.248 1054.53C477.248 1054.51 477.296 1054.48 477.393 1054.47C477.632 1054.44 477.913 1054.69 478.108 1054.87C478.168 1054.92 478.252 1054.98 478.313 1055.03C478.375 1055.08 478.411 1055.11 478.448 1055.19" stroke="#593137" stroke-linecap="round"/>
<path d="M477.248 1054.53C477.248 1054.51 477.296 1054.48 477.393 1054.47C477.632 1054.44 477.913 1054.69 478.108 1054.87C478.168 1054.92 478.252 1054.98 478.313 1055.03C478.375 1055.08 478.411 1055.11 478.448 1055.19" stroke="#593137" stroke-linecap="round"/>
<path d="M487.79 1061.15C487.947 1061.24 488.285 1061.53 488.553 1061.72C488.783 1061.88 489.11 1061.9 489.352 1061.95C489.59 1062.01 489.776 1062.11 489.988 1062.21C490.293 1062.37 490.479 1062.53 490.667 1062.66C490.967 1062.86 491.315 1063.05 491.654 1063.23C491.861 1063.33 492.115 1063.5 492.358 1063.63C492.578 1063.74 492.806 1063.91 492.964 1064.06C493.164 1064.24 493.532 1064.39 493.788 1064.53C493.991 1064.65 494.319 1064.83 494.599 1064.94C494.857 1065.04 495.035 1065.17 495.284 1065.32C495.542 1065.48 495.81 1065.64 496.126 1065.84C496.445 1066.03 496.647 1066.16 497.083 1066.37C497.368 1066.51 497.605 1066.64 497.786 1066.75C497.991 1066.88 498.234 1067.02 498.531 1067.22C498.759 1067.37 498.961 1067.51 499.174 1067.69C499.398 1067.87 499.736 1068.01 499.968 1068.19C500.147 1068.33 500.331 1068.45 500.537 1068.63C500.86 1068.91 500.986 1069.1 501.125 1069.27C501.156 1069.32 501.18 1069.38 501.216 1069.43C501.252 1069.48 501.3 1069.53 501.35 1069.58" stroke="#593137" stroke-linecap="round"/>
<path d="M487.79 1061.15C487.947 1061.24 488.285 1061.53 488.553 1061.72C488.783 1061.88 489.11 1061.9 489.352 1061.95C489.59 1062.01 489.776 1062.11 489.988 1062.21C490.293 1062.37 490.479 1062.53 490.667 1062.66C490.967 1062.86 491.315 1063.05 491.654 1063.23C491.861 1063.33 492.115 1063.5 492.358 1063.63C492.578 1063.74 492.806 1063.91 492.964 1064.06C493.164 1064.24 493.532 1064.39 493.788 1064.53C493.991 1064.65 494.319 1064.83 494.599 1064.94C494.857 1065.04 495.035 1065.17 495.284 1065.32C495.542 1065.48 495.81 1065.64 496.126 1065.84C496.445 1066.03 496.647 1066.16 497.083 1066.37C497.368 1066.51 497.605 1066.64 497.786 1066.75C497.991 1066.88 498.234 1067.02 498.531 1067.22C498.759 1067.37 498.961 1067.51 499.174 1067.69C499.398 1067.87 499.736 1068.01 499.968 1068.19C500.147 1068.33 500.331 1068.45 500.537 1068.63C500.86 1068.91 500.986 1069.1 501.125 1069.27C501.156 1069.32 501.18 1069.38 501.216 1069.43C501.252 1069.48 501.3 1069.53 501.35 1069.58" stroke="#593137" stroke-linecap="round"/>
<rect x="645.128" y="1196.88" width="62.0955" height="197.46" transform="rotate(-59.899 645.128 1196.88)" fill="#593137"/>
<rect x="645.128" y="1196.88" width="62.0955" height="197.46" transform="rotate(-59.899 645.128 1196.88)" fill="#593137"/>
<rect x="532.837" y="650.602" width="63.4927" height="250.314" transform="rotate(37.0472 532.837 650.602)" fill="#593137"/>
<rect x="532.837" y="650.602" width="63.4927" height="250.314" transform="rotate(37.0472 532.837 650.602)" fill="#593137"/>
<rect x="216.674" y="974.97" width="49.5606" height="280.999" transform="rotate(-59.899 216.674 974.97)" fill="#593137"/>
<rect x="216.674" y="974.97" width="49.5606" height="280.999" transform="rotate(-59.899 216.674 974.97)" fill="#593137"/>
<rect x="218.935" y="959.49" width="49.5606" height="351.088" transform="rotate(-59.899 218.935 959.49)" fill="#593137"/>
<rect x="218.935" y="959.49" width="49.5606" height="351.088" transform="rotate(-59.899 218.935 959.49)" fill="#593137"/>
</svg>
